<svg width="600" height="600" viewBox="0 0 600 600" fill="none" xmlns="http://www.w3.org/2000/svg">
<g id="search">
<path id="Vector" d="M308.633 124.449C260.316 76.133 181.698 76.133 133.38 124.449C109.974 147.855 97.084 178.975 97.084 212.076C97.084 245.178 109.974 276.297 133.38 299.703C156.786 323.109 187.906 336 221.007 336C254.109 336 285.229 323.109 308.634 299.703C356.951 251.386 356.951 172.767 308.633 124.449ZM294.492 285.561C274.863 305.189 248.766 316 221.007 316C193.249 316 167.151 305.189 147.523 285.56C127.895 265.932 117.085 239.834 117.085 212.076C117.085 184.318 127.894 158.221 147.523 138.592C167.785 118.329 194.391 108.202 221.007 108.202C247.617 108.202 274.234 118.335 294.491 138.592C335.011 179.112 335.011 245.042 294.492 285.561Z" fill="black"/>
<path id="Vector_2" d="M160.017 193.935C161.586 188.639 158.565 183.074 153.27 181.505C147.976 179.936 142.41 182.956 140.841 188.251C132.111 217.71 140.173 249.495 161.881 271.203C163.833 273.155 166.393 274.132 168.952 274.132C171.511 274.132 174.07 273.155 176.023 271.204C179.928 267.298 179.928 260.966 176.023 257.061C159.506 240.544 153.372 216.355 160.017 193.935Z" fill="black"/>
<path id="Vector_3" d="M190.469 134.214C179.721 138.425 170.102 144.728 161.881 152.949C157.976 156.855 157.976 163.187 161.881 167.092C163.833 169.044 166.393 170.021 168.952 170.021C171.511 170.021 174.07 169.044 176.022 167.092C182.282 160.832 189.597 156.035 197.763 152.837C202.906 150.822 205.441 145.021 203.427 139.878C201.413 134.735 195.611 132.202 190.469 134.214Z" fill="black"/>
<path id="body" d="M543.336 483.646L365.402 305.713C385.801 274.292 395.425 236.758 392.591 199.081C389.507 158.096 371.783 119.5 342.684 90.4C310.167 57.884 266.984 40 221.023 40C220.801 40 220.578 40.001 220.355 40.001C174.149 40.176 130.837 58.409 98.398 91.342C32.09 158.658 32.707 267.599 99.773 334.192C128.885 363.099 167.428 380.674 208.301 383.681C245.88 386.443 283.309 376.814 314.644 356.471L492.577 534.403C497.757 539.583 504.561 542.173 511.365 542.173C518.169 542.173 524.973 539.583 530.154 534.404L543.336 521.222C553.695 510.862 553.695 494.006 543.336 483.646ZM529.193 507.079L516.011 520.261C513.448 522.824 509.281 522.822 506.719 520.261L322.914 336.456C320.978 334.519 318.417 333.527 315.84 333.527C313.796 333.527 311.742 334.151 309.982 335.425C249.444 379.213 166.964 372.725 113.864 320C54.592 261.146 54.046 164.867 112.646 105.377C141.316 76.27 179.595 60.155 220.43 60.001C220.629 60.001 220.822 60 221.021 60C261.638 60 299.806 75.807 328.541 104.542C381.649 157.65 388.3 240.293 344.355 301.051C341.477 305.03 341.914 310.51 345.387 313.983L529.193 497.788C531.755 500.35 531.755 504.517 529.193 507.079Z" fill="black"/>
</g>
</svg>
