<svg width="40" height="40" viewBox="0 0 600 600" fill="none" xmlns="http://www.w3.org/2000/svg">

<g id="shopping-bag">

<path id="bag-outside" d="M527.674 209.118C526.611 198.487 517.043 189.982 506.412 189.982H441.562V169.782C441.562 90.0486 376.711 25.198 296.977 25.198C217.243 25.198 152.394 90.0486 152.394 169.782V189.982H92.8585C81.1646 189.982 72.659 198.487 71.5965 209.118L49.271 501.476C48.2076 507.854 50.3345 513.169 54.5863 517.422C57.7756 521.675 64.1543 523.801 69.4696 523.801H526.611C538.305 523.801 547.873 514.233 550 502.539C550 501.475 550 499.35 550 498.286L527.674 209.118ZM298.041 66.6606C354.386 66.6606 401.164 112.375 401.164 169.783V189.983H194.919V169.783C194.918 113.438 241.696 66.6606 298.041 66.6606ZM91.7961 482.339L110.932 231.444H152.394V253.769C152.394 265.463 161.962 275.031 173.656 275.031C185.35 275.031 194.918 265.463 194.918 253.769V231.444H401.163V253.769C401.163 265.463 410.731 275.031 422.425 275.031C434.119 275.031 442.624 265.463 441.561 253.769V231.444H485.148L504.284 482.339H91.7961Z" fill="black"/>


</g>

</svg>
